# xmcd CD database file
# Copyright (C) 1995-1998 Ti Kan
#
# Track frame offsets:
#	150
#	21300
#	35850
#	57450
#	79800
#	100140
#	112950
#	133650
#	160215
#	186015
#	207300
#	225150
#	253875
#	278250
#
# Disc length: 4036 seconds
#
# Revision: 1
# Processed by: cddbd v1.4PL0 Copyright (c) Steve Scherf et al.
# Submitted via: CDex 1.30Release
#
DISCID=bb0fc20e
DTITLE=The Big Booze - World Full Of Blues
DYEAR=2002
DGENRE=Blues
TTITLE0=World Full Of Blues
TTITLE1=Things Will Work Out Right
TTITLE2=Too Little Time
TTITLE3=Since You Are Gone
TTITLE4=Looking For An Alibi
TTITLE5=I Wanna Feel Good
TTITLE6=Anything For You
TTITLE7=Please Come Home
TTITLE8=Front Page Girl
TTITLE9=No Reason
TTITLE10=Here I Am
TTITLE11=Something 's Between Us
TTITLE12=Trouble For Nothing
TTITLE13=The Clouds Are Breaking
EXTD=YEAR: 2002 ID3G:   0
EXTT0=
EXTT1=
EXTT2=
EXTT3=
EXTT4=
EXTT5=
EXTT6=
EXTT7=
EXTT8=
EXTT9=
EXTT10=
EXTT11=
EXTT12=
EXTT13=
PLAYORDER=
